<svg xmlns="http://www.w3.org/2000/svg" viewBox="0 0 512 512" width="512" height="512">
  <g data-name="Filled Outline">
    <path
      d="M48,368a22.928,23.928,0,0,0,16.971-7.029L200,225.941l55.029,55.03a24,24,0,0,0,33.942,0l151.02-151.02L439.982,184a24,24,0,0,0,24,24h0a24,24,0,0,0,24-24L488,72a24,24,0,0,0-24-24H352a24,24,0,0,0,0,48h54.059L272,230.059l-55.029-55.03a24,24,0,0,0-33.942,0l-152,152A24,24,0,0,0,48,368Z"
      style="fill:#ff9800" />
    <path d="M464,416H48a24,24,0,0,0,0,48H464a24,24,0,0,0,0-48Z" style="fill:#ff9800" />
    <path
      d="M48,376a32,32,0,0,1-22.627-54.627l152-152a32.037,32.037,0,0,1,45.254,0L272,218.745,386.745,104H352a32,32,0,0,1,0-64H464a32,32,0,0,1,32,32l-.018,112a32,32,0,0,1-64-.01l.006-34.727L294.627,286.628a32.036,32.036,0,0,1-45.254,0L200,237.255,70.627,366.628A31.788,31.788,0,0,1,48,376ZM200,176.007a15.949,15.949,0,0,0-11.314,4.68l-152,152a16,16,0,1,0,22.628,22.626L194.343,220.284a8,8,0,0,1,11.314,0l55.029,55.029a16,16,0,0,0,22.628,0l151.02-151.019a8,8,0,0,1,13.657,5.658L447.982,184a16,16,0,0,0,32,.006L480,72a16,16,0,0,0-16-16H352a16,16,0,0,0,0,32h54.059a8,8,0,0,1,5.656,13.657L277.657,235.716a8,8,0,0,1-11.314,0l-55.029-55.029A15.949,15.949,0,0,0,200,176.007Z" />
    <path d="M464,472H48a32,32,0,0,1,0-64H464a32,32,0,0,1,0,64ZM48,424a16,16,0,0,0,0,32H464a16,16,0,0,0,0-32Z" />
  </g>
</svg>