<svg width="511.995" height="511.995" xmlns="http://www.w3.org/2000/svg">
  <g>
    <g stroke="null" id="svg_1">
      <path stroke="null"
        d="m22.3822,93.5067c-5.66766,0 -11.33531,2.20916 -15.52666,6.64921c-8.12719,8.51964 -7.74245,21.96719 0.83409,30.04046l164.25071,154.45074c4.38421,4.12107 10.33023,6.22456 16.29712,5.75745c6.00964,-0.44638 11.54906,-3.39917 15.24829,-8.09401l64.41703,-81.92071l205.52588,205.35331c8.34093,8.28559 21.85741,8.37052 30.24109,0.08493c8.38368,-8.26387 8.42643,-21.7124 0.0855,-30.04046l-222.63622,-222.43408c-4.32058,-4.33438 -10.39385,-6.45861 -16.44625,-6.22456c-6.13789,0.36145 -11.80555,3.31424 -15.59128,8.13647l-64.86639,82.49349l-147.16224,-138.40988c-4.10585,-3.90875 -9.38877,-5.84238 -14.67069,-5.84238z" />
      <path stroke="null"
        d="m296.36719,390.95871c0.04733,-11.89591 9.66406,-21.47442 21.51462,-21.4269l150.0002,0.60146l0.59911,-150.5858c0.04733,-11.89591 9.68597,-21.47433 21.51462,-21.4269s21.39077,9.70185 21.34344,21.59875l-0.6847,172.09963c-0.04733,11.89591 -9.68597,21.47433 -21.51462,21.4269l-171.42923,-0.68738c-11.82864,-0.04843 -21.39068,-9.72485 -21.34343,-21.59975z" />
    </g>
  </g>
</svg>