<?xml version="1.0" standalone="no"?>
<!DOCTYPE svg PUBLIC "-//W3C//DTD SVG 20010904//EN"
 "http://www.w3.org/TR/2001/REC-SVG-20010904/DTD/svg10.dtd">
<svg version="1.0" xmlns="http://www.w3.org/2000/svg"
 width="512.000000pt" height="512.000000pt" viewBox="0 0 512.000000 512.000000"
 preserveAspectRatio="xMidYMid meet">
<metadata>
Created by potrace 1.14, written by Peter Selinger 2001-2017
</metadata>
<g transform="translate(0.000000,512.000000) scale(0.100000,-0.100000)"
fill="#000000" stroke="none">
<path d="M2379 5116 c-2 -2 -40 -6 -83 -10 -44 -4 -82 -9 -85 -11 -4 -2 -34
-7 -66 -10 -117 -14 -472 -111 -499 -136 -6 -5 -16 -9 -24 -9 -19 0 -243 -107
-342 -163 -47 -27 -127 -78 -178 -114 -490 -342 -842 -835 -1006 -1408 -14
-49 -27 -101 -30 -115 -2 -14 -11 -56 -19 -95 -39 -185 -55 -526 -35 -735 34
-356 157 -731 341 -1044 326 -555 844 -964 1462 -1155 126 -39 248 -65 430
-92 100 -14 456 -20 550 -8 39 5 93 11 120 15 28 3 95 15 150 26 55 11 111 22
124 24 52 10 297 96 389 136 747 327 1297 988 1477 1776 46 202 63 373 59 612
-1 118 -4 224 -7 235 -3 11 -8 45 -11 75 -4 30 -16 100 -27 155 -194 963 -928
1734 -1879 1975 -201 51 -360 71 -596 75 -117 2 -213 2 -215 1z m441 -261
c328 -49 540 -113 784 -237 342 -175 642 -437 859 -751 26 -37 47 -70 47 -72
0 -2 11 -20 25 -40 67 -100 170 -327 226 -500 115 -354 139 -792 62 -1150 -8
-38 -16 -79 -19 -90 -12 -59 -71 -241 -101 -315 -221 -533 -609 -953 -1119
-1208 -487 -243 -1057 -305 -1588 -171 -316 80 -637 241 -891 447 -86 70 -256
237 -320 315 -255 311 -432 691 -500 1077 -29 167 -41 532 -22 650 4 19 9 53
11 75 17 137 67 331 127 491 147 391 403 740 734 999 218 170 448 293 711 380
141 47 376 96 519 108 66 5 406 0 455 -8z"/>
<path d="M2507 4525 c-1 -2 -47 -5 -102 -9 -354 -21 -731 -166 -1037 -397 -99
-75 -287 -260 -349 -344 -24 -33 -49 -66 -56 -73 -7 -7 -37 -52 -67 -101 -287
-465 -372 -1016 -236 -1531 94 -356 256 -637 514 -896 262 -261 556 -428 915
-519 57 -14 122 -28 145 -31 22 -3 46 -7 53 -9 20 -7 203 -18 283 -18 352 0
718 105 1021 293 251 156 484 389 640 641 123 198 236 496 264 694 3 23 8 52
10 65 16 81 23 291 13 407 -23 274 -91 521 -207 750 -50 97 -163 276 -196 309
-8 8 -15 19 -15 24 0 18 -268 279 -348 339 -229 172 -447 276 -725 346 -125
31 -178 40 -292 51 -57 5 -224 12 -228 9z m248 -975 c150 -30 294 -125 353
-230 63 -115 64 -257 2 -382 -16 -32 -26 -59 -22 -61 4 -1 64 -2 135 -2 l127
1 0 -108 0 -108 -236 0 -236 0 -106 -87 c-59 -47 -113 -92 -121 -99 -12 -11
41 -13 290 -13 167 0 328 0 357 -1 l52 0 0 -108 0 -108 -462 1 -462 0 -29 -24
c-64 -54 -88 -160 -52 -234 33 -70 124 -108 255 -109 129 0 257 65 344 173
l38 48 137 -91 c75 -50 138 -93 140 -95 19 -14 -118 -160 -203 -217 -138 -92
-284 -136 -461 -141 -364 -9 -613 151 -629 406 -5 77 17 170 54 231 16 26 26
49 22 50 -4 2 -67 3 -139 3 l-133 -1 0 108 0 108 226 0 226 0 124 96 c68 53
124 98 124 99 0 2 -152 3 -337 4 -186 0 -344 0 -350 0 -10 1 -13 30 -13 109
l0 108 462 -1 461 0 36 43 c113 135 59 286 -115 322 -148 31 -295 -34 -406
-179 l-26 -34 -136 93 -135 92 29 42 c113 161 299 274 505 307 61 9 241 3 310
-11z"/>
</g>
</svg>
