<?xml version="1.0" standalone="no"?>
<!DOCTYPE svg PUBLIC "-//W3C//DTD SVG 20010904//EN"
 "http://www.w3.org/TR/2001/REC-SVG-20010904/DTD/svg10.dtd">
<svg version="1.0" xmlns="http://www.w3.org/2000/svg"
 width="700.000000pt" height="700.000000pt" viewBox="0 0 700.000000 700.000000"
 preserveAspectRatio="xMidYMid meet">
<metadata>
Created by potrace 1.11, written by Peter Selinger 2001-2013
</metadata>
<g transform="translate(0.000000,700.000000) scale(0.100000,-0.100000)"
fill="#000000" stroke="none">
<path d="M1659 6996 c-2 -2 -32 -7 -67 -10 -224 -23 -520 -127 -685 -240 -21
-14 -40 -26 -43 -26 -18 0 -175 -131 -265 -220 -175 -175 -279 -330 -385 -577
-16 -37 -61 -179 -69 -218 -47 -227 -59 -382 -41 -575 31 -340 191 -706 421
-959 113 -124 206 -205 340 -293 89 -60 301 -168 327 -168 8 0 18 -4 24 -9 5
-4 54 -21 109 -36 55 -15 103 -29 106 -31 4 -2 44 42 90 98 134 164 339 360
469 448 19 13 37 27 40 30 9 11 142 96 225 142 90 51 231 120 291 141 202 74
331 113 467 138 74 14 71 10 82 104 3 28 10 68 15 90 5 22 11 56 14 76 9 61
75 268 116 364 47 110 95 202 166 315 58 94 57 84 19 210 -33 109 -78 218
-126 307 -42 77 -126 208 -151 234 -7 8 -30 35 -50 61 -194 240 -503 444 -816
537 -54 16 -116 32 -137 35 -21 4 -47 9 -59 11 -12 3 -39 8 -61 11 -47 6 -360
15 -366 10z m-354 -696 c17 -6 43 -23 58 -38 38 -36 38 -36 339 -614 51 -97
96 -174 99 -170 4 4 37 66 74 137 37 72 85 162 105 200 35 65 91 172 179 339
65 124 136 171 241 159 168 -19 251 -155 180 -294 -21 -40 -60 -106 -297 -490
-45 -75 -83 -138 -83 -140 0 -2 44 -4 99 -4 113 0 142 -11 166 -61 28 -60 -2
-131 -64 -151 -14 -5 -95 -8 -179 -8 l-153 2 -25 -42 c-15 -26 -24 -57 -24
-82 l0 -40 163 -1 c235 0 223 1 257 -29 51 -48 47 -132 -8 -170 -24 -16 -50
-18 -217 -19 l-190 0 -5 -180 c-6 -192 -11 -212 -65 -266 -43 -44 -104 -62
-183 -55 -84 8 -135 41 -171 111 -23 45 -25 57 -25 217 l-1 169 -25 1 c-14 1
-99 2 -190 3 -113 1 -172 5 -188 14 -72 41 -71 152 2 191 17 9 81 14 212 15
l189 1 1 34 c0 19 -10 55 -23 81 l-23 46 -168 0 c-145 1 -171 3 -196 19 -74
49 -56 170 29 193 17 5 67 8 113 8 45 -1 82 2 82 6 0 3 -17 34 -37 68 -21 34
-45 73 -54 88 -9 15 -80 132 -157 260 -78 127 -144 248 -148 267 -3 19 -3 56
1 83 17 113 183 190 310 142z"/>
<path d="M5015 6139 c-27 -4 -70 -10 -94 -13 -82 -11 -283 -69 -361 -103 -260
-115 -439 -241 -626 -444 -175 -190 -354 -537 -389 -756 -1 -11 -5 -29 -9 -40
-3 -10 -8 -37 -11 -60 -6 -42 -5 -43 22 -44 124 -3 297 -20 433 -44 68 -12
226 -55 315 -85 154 -53 144 -51 155 -29 16 28 63 49 115 49 44 0 54 7 36 25
-12 13 -49 106 -58 148 -14 62 -8 229 10 288 33 106 111 214 208 286 197 148
475 187 779 109 116 -30 248 -108 323 -190 100 -112 134 -278 74 -368 -43 -64
-173 -103 -245 -73 -43 19 -69 50 -113 141 -59 118 -97 155 -190 179 -104 28
-243 5 -318 -52 -121 -92 -142 -222 -64 -400 l39 -88 200 -5 201 -5 36 -28
c42 -32 52 -59 44 -123 -10 -91 -63 -114 -261 -114 l-126 0 6 -42 c3 -24 -1
-71 -9 -105 -8 -35 -11 -63 -6 -63 4 0 63 -54 131 -120 69 -68 134 -123 148
-126 153 -31 180 -33 285 -15 136 23 148 23 195 -1 52 -27 77 -66 86 -131 18
-129 -67 -227 -223 -257 l-62 -12 26 -40 c47 -75 128 -249 184 -396 l31 -83
77 42 c319 175 577 447 731 771 329 693 147 1531 -440 2021 -115 96 -129 107
-134 107 -2 0 -28 16 -57 36 -111 75 -398 198 -514 218 -16 3 -41 8 -55 11
-14 3 -38 7 -55 10 -16 3 -43 8 -60 11 -46 9 -354 11 -410 3z"/>
<path d="M3397 4254 c-1 -1 -38 -4 -83 -8 -87 -6 -219 -28 -324 -52 -253 -58
-621 -238 -796 -389 -6 -5 -31 -26 -55 -45 -63 -50 -217 -204 -281 -281 -184
-221 -335 -513 -412 -800 -51 -192 -70 -345 -70 -564 0 -163 11 -273 38 -405
3 -14 8 -38 12 -55 32 -161 144 -444 239 -604 33 -55 122 -187 145 -215 152
-182 213 -245 345 -353 104 -84 97 -79 154 -118 49 -33 50 -34 162 -97 229
-128 495 -215 769 -252 100 -13 449 -15 510 -3 14 3 43 8 65 11 224 32 438
102 662 217 94 48 286 168 303 188 3 4 30 26 60 50 171 134 360 350 482 551
117 194 212 430 253 633 2 10 6 26 9 35 3 9 8 40 12 67 3 28 8 53 10 56 16 28
24 387 11 516 -12 116 -16 137 -37 235 -72 325 -211 619 -417 882 -111 141
-314 329 -473 437 -90 61 -107 71 -265 149 -199 97 -407 164 -580 186 -22 3
-50 7 -63 10 -52 11 -374 26 -385 18z m171 -555 c33 -21 42 -54 44 -173 l3
-109 30 -2 c239 -15 526 -125 671 -258 88 -81 129 -164 129 -262 -1 -127 -73
-208 -196 -219 -85 -7 -135 24 -240 152 -39 48 -85 100 -103 115 -77 70 -164
107 -261 111 l-30 1 -1 -333 -2 -332 27 -6 c256 -56 451 -126 569 -205 122
-82 219 -219 258 -364 42 -160 20 -387 -53 -535 -54 -110 -168 -221 -288 -281
-49 -25 -101 -49 -115 -53 -14 -5 -29 -10 -35 -12 -31 -11 -177 -45 -220 -50
-27 -3 -59 -7 -70 -9 -11 -1 -32 -3 -46 -4 l-26 -1 -1 -121 c-1 -129 -5 -153
-31 -179 -46 -49 -100 -48 -147 1 -29 30 -29 32 -31 161 -1 72 -4 132 -5 133
-2 2 -32 6 -68 9 -282 24 -486 110 -645 271 -199 201 -233 475 -71 566 34 19
56 23 121 23 134 0 180 -38 240 -192 67 -173 99 -215 200 -263 62 -29 83 -34
173 -45 l52 -7 0 39 c4 287 0 688 -7 693 -4 4 -44 16 -88 26 -498 112 -751
359 -739 722 9 264 147 478 387 599 50 26 172 74 182 73 3 0 29 5 58 10 88 19
95 20 152 23 l55 3 0 55 c2 179 9 208 62 240 32 19 63 16 106 -11z"/>
<path d="M3350 3053 c-139 -17 -250 -81 -310 -178 -21 -34 -25 -52 -25 -120 0
-126 48 -196 179 -259 69 -34 193 -72 203 -62 4 4 6 296 4 562 -1 63 -1 63
-51 57z"/>
<path d="M3612 1575 c-1 -395 -14 -356 108 -330 213 45 336 178 323 349 -8
105 -73 195 -180 249 -50 26 -207 77 -235 77 -14 0 -16 -37 -16 -345z"/>
</g>
</svg>
